<svg version="1.2" xmlns="http://www.w3.org/2000/svg" viewBox="0 0 759 768" width="759" height="768">
	<title>oJfdMR01</title>
	<style>
		.s0 { fill: #000000 } 
	</style>
	<g>
		<path fill-rule="evenodd" class="s0" d="m392 0c117.8 0 143 0.2 143 1.3 0 0.8 6.9 4.2 16.3 8.2 8.9 3.7 21.8 9.7 28.7 13.3 6.9 3.6 14.1 7.4 16 8.4 4.2 2.2 5.9 3.2 13 7.7 3 2 6.3 4 7.2 4.6 8.4 5.1 28.1 19.5 40.3 29.6 27.2 22.4 54.9 52.6 76.3 83.1 7.3 10.5 17.5 26.7 20.7 33 1.5 3.2 3.4 5.8 4.2 5.8 1.1 0 1.3 33.1 1.3 196 0 159.8-0.2 196-1.3 196-0.7 0-2.8 2.8-4.6 6.2-4.7 9.1-6.4 11.8-16.4 26.8-10.2 15.2-12.8 19-14.2 20.5-0.5 0.6-5.5 6.7-11 13.6-12.1 14.9-39.3 42.4-53 53.4-5.5 4.4-12.7 10.2-16 13-6.2 5.2-12.1 9.5-12.9 9.5-0.3 0-6.2 3.8-13.1 8.5-6.9 4.6-16.3 10.3-20.8 12.6-4.5 2.2-10.9 5.6-14.2 7.4-3.3 1.8-8.5 4.6-11.5 6.2l-5.5 2.8-171.9 0.3-171.9 0.2-18.1-9c-10-4.9-19.7-10.3-21.6-11.9l-3.5-3 8.5-8.3c24.6-23.9 52-46.2 92.7-75.3 12.6-9 39-26.4 51.6-34.1 2.7-1.6 5.9-3.6 7.2-4.4 6.8-4.3 49.2-29.8 50.5-30.4 0.8-0.3 2.9-1.5 4.5-2.6 1.7-1 4.1-2.5 5.5-3.3 1.4-0.7 8.4-4.6 15.5-8.7 7.2-4 14.2-8 15.8-8.7 2.8-1.5 2.8-3.3 0-3.3-0.8 0-5.9 1.4-11.2 3-5.3 1.7-12.1 3.8-15.1 4.7-8.5 2.4-17.3 5.3-19.5 6.2-1.1 0.5-2.9 1.2-4 1.4-1.1 0.3-4.5 1.5-7.5 2.7-3 1.2-7.1 2.6-9 3.2-1.9 0.5-3.9 1.4-4.4 1.9-0.6 0.5-1.8 0.9-2.7 0.9-1.4 0-8.3 2.7-19.4 7.5-1.6 0.7-11.8 5-22.5 9.5-10.7 4.5-22.4 9.6-26 11.2-8.2 3.8-65 31.9-71 35.2-2.5 1.3-5.2 2.7-6 3-0.8 0.4-3.5 1.8-6 3.2-2.5 1.4-9.2 5.1-15 8.1-5.8 3-13.4 7.2-17 9.3-3.6 2.1-8.8 5.1-11.5 6.6-4 2.3-23.3 13.5-34.3 19.9-0.9 0.5-4.9 2.8-8.7 5-3.9 2.2-7.7 4.4-8.7 5-0.9 0.5-3.6 2-6 3.3-2.4 1.3-8.2 4.8-12.9 7.7-4.6 2.9-12.7 7.9-17.9 11.1-5.2 3.2-12.9 8.1-17 10.9-4.1 2.8-8.3 5.4-9.2 5.8-0.9 0.3-6.3 3.6-12 7.4-14.5 9.6-13.8 9.3-24.9 9.3h-10l0.6-30.4 7-5.8c8.5-7.1 13.7-11.3 24.7-19.8 4.6-3.5 8.8-6.8 9.3-7.2 2.5-2.1 34.5-25.8 38.9-28.9 2.7-1.8 7-4.9 9.5-6.7 7.7-5.5 54-36.3 63.1-41.9 4.7-2.9 9.2-5.7 10-6.2 0.8-0.6 3.6-2.1 6.2-3.5 2.5-1.4 8.2-4.8 12.5-7.7 4.3-2.8 8.7-5.5 9.8-6 1.1-0.5 3.4-1.8 5-2.9 1.7-1.1 3.7-2.3 4.5-2.7 0.8-0.4 3.3-1.9 5.5-3.4 4.4-2.9 8.5-5.2 23.3-13.1 5.3-2.8 11.3-6.1 13.2-7.3 1.9-1.1 4.6-2.6 6-3.3 1.4-0.7 6.1-3.2 10.5-5.7 12.6-7 74.5-37.6 89-44 12.8-5.6 20-8.8 26.5-11.8 11.7-5.4 16.1-7.3 21.5-9.2 2.8-1 5.9-2.5 7-3.2 1.1-0.7 2.7-1.3 3.6-1.3 1 0 3.1-0.7 4.8-1.5 1.7-0.8 4.5-2.2 6.2-3 1.7-0.8 3.5-1.5 4.1-1.5 0.6 0 6.1-2 12.2-4.4 6.1-2.5 13.8-5.4 17.1-6.5 3.3-1.1 10.5-3.6 16-5.6 5.5-2 10.9-3.9 12-4.2 1.1-0.3 3.4-1.1 5-1.8 1.7-0.7 5.7-2 9-3 3.3-0.9 7.1-2.2 8.5-2.7 1.4-0.6 4.1-1.4 6-1.9 1.9-0.4 6-1.5 9-2.4 3-0.9 7.8-2.3 10.5-3 2.8-0.8 7.5-2.1 10.5-3 3-0.9 7.5-2.1 10-2.7 2.5-0.6 9.9-2.3 16.5-3.8 17.1-4 25.5-5.6 38-7.4 6.1-0.8 14.8-2.1 19.5-2.7 4.6-0.7 17.4-1.3 28.5-1.3l20-0.1-0.3-3.5c-0.1-1.9-1.1-7.2-2.2-11.8-6-24.6-19.5-47.7-36.7-62.9-7.7-6.8-22.2-16.5-29.2-19.5-2.5-1.1-7.4-3.3-10.9-4.9-3.4-1.6-7.2-2.9-8.5-2.9-1.3 0-2.7-0.4-3.3-1-1-1-3.6-1.6-18.4-4.4-4.7-0.9-9.5-1.9-10.7-2.1-1.3-0.3-4.5-3.6-7.7-7.8-2.9-3.9-7.6-9.3-10.2-11.8-4.6-4.3-7.5-6.5-17.9-13.2-4.9-3.1-20-9.9-27.5-12.3-3-0.9-6.4-2.1-7.5-2.5-4.4-1.7-13.5-3.7-32-7.3-17.4-3.4-47.3-5.6-79.2-5.7-17-0.1-31.5 0.1-32.1 0.4-0.6 0.4-9.3 1.1-19.4 1.7-10.1 0.5-20.8 1.3-23.8 1.9-3 0.5-9.3 1.5-14 2.1-31.2 4.1-40.4 5.5-46.9 6.9-2.5 0.5-8.4 1.7-13.1 2.6-19.7 3.9-24.6 4.9-46 10.1-12.4 3.1-24.1 5.9-26 6.3-14.7 3.5-25.8 6.6-44.5 12.6-3.8 1.2-11.7 3.7-17.5 5.5-18.6 5.7-29.4 9.2-33.5 10.7-2.2 0.9-5.8 2.2-8 3-2.2 0.8-5.4 2.1-7 2.8-1.7 0.7-4.5 1.6-6.2 1.9-1.8 0.4-3.5 1.2-3.8 1.7-0.4 0.5-1.3 0.9-2.2 0.9-1.6 0-18.4 6.3-21.5 8-1 0.6-2 1-2.3 1-0.3 0-0.5-19.2-0.5-42.8v-42.7l2.8-8c1.6-4.4 3.3-8.9 3.9-10 0.6-1.1 2.1-4.5 3.3-7.5 8.5-20.8 24.2-49.2 40.1-72.5 17.5-25.7 49.7-61.6 72.1-80.3 24-20 53.9-40.1 77.4-51.9 5.5-2.8 10.9-5.5 12-6.1 1-0.6 5.7-2.7 10.4-4.7 4.7-2 11-4.7 14-6 3-1.3 7.2-2.9 9.3-3.5 2-0.6 3.7-1.8 3.7-2.6 0-1.2 20-1.4 143-1.4zm84.9 326c14.2 1.6 14.3 1.3-5.4 21-9.4 9.4-18.1 17.3-19.4 17.6-1.4 0.4-5.9-0.3-10.5-1.5-7.3-2-12-3.3-22.6-6.1-9.7-2.6-19-5.2-23-6.4-2.5-0.8-9.4-2.1-15.5-3-6-1-14.1-2.3-18-3.1-3.8-0.8-11.3-1.6-16.6-1.9-9.6-0.5-14.9-1.8-14.9-3.4 0-0.9 7.9-3.1 18.5-5.2 2.8-0.5 9.3-1.9 14.5-3 5.2-1.1 12.4-2.2 16-2.5 3.6-0.4 8.7-1.1 11.5-1.7 2.7-0.6 10.8-1.4 18-1.9 15.1-0.8 55.2-0.2 67.4 1.1zm-274.7 145.5c16.2 0 18.6 1 11.1 4.8-4.9 2.5-10.8 5.7-14.6 8.1-1.2 0.7-6.9 3.8-12.7 6.9-11.5 6-19 10-29 15.5-3.6 2-12.3 6.6-19.5 10.2-7.1 3.7-17.3 9-22.5 11.7-5.2 2.8-13.5 7.2-18.5 9.8-18 9.4-32.5 17.3-48.3 26.2-6.4 3.6-15.7 8.8-20.6 11.5-4.9 2.7-10.6 6.1-12.7 7.4-2.1 1.3-4.2 2.4-4.5 2.4-0.4 0-2.9 1.3-5.5 3l-4.9 3v-65.8l3.4-1.6c1.9-0.9 3.8-1.6 4.4-1.6 0.5 0 1.5-0.7 2.2-1.5 0.7-0.8 1.9-1.5 2.7-1.5 1.1 0 14.4-5.9 22.5-10.1 1.5-0.7 8-3.3 24.3-9.6 2.2-0.8 5.4-2.1 7-2.8 1.7-0.8 5.5-2.1 8.5-3 3-0.9 7-2.3 8.8-3.1 1.8-0.8 3.9-1.4 4.7-1.4 0.7 0 5.6-1.3 10.7-2.9 5.1-1.5 12.5-3.6 16.3-4.4 3.9-0.9 9.9-2.3 13.5-3.1 3.6-0.8 10.8-2.2 16-3.1 5.2-0.8 12.2-2 15.6-2.6 3.3-0.6 11-1.4 17-1.7 6-0.4 17.1-0.7 24.6-0.7z"/>
		<path id="Shape 1" class="s0" d="m282-11v266h-327v-266zm0 0v266h-327v-266zm0 0v266h-327v-266z"/>
		<path id="Shape 1 copy" class="s0" d="m818-14v266h-327v-266zm0 0v266h-327v-266zm0 0v266h-327v-266z"/>
		<path id="Shape 1 copy 2" class="s0" d="m868 512v266h-327v-266zm0 0v266h-327v-266zm0 0v266h-327v-266z"/>
		<path id="Shape 1 copy 4" class="s0" d="m427-123v266h-327v-266zm0 0v266h-327v-266zm0 0v266h-327v-266z"/>
		<path id="Shape 1 copy 3" class="s0" d="m1021 198v266h-327v-266zm0 0v266h-327v-266zm0 0v266h-327v-266z"/>
	</g>
</svg>