<svg version="1.2" xmlns="http://www.w3.org/2000/svg" viewBox="0 0 191 152" width="191" height="152">
	<title>&lt;Group&gt;</title>
	<style>
		.s0 { fill: #000000 } 
	</style>
	<g id="&lt;Group&gt;">
		<path id="&lt;Path&gt;" class="s0" d="m93.5 82.2c-24.7 13.8-63.8 30.2-92.9 66.8 34.1-59.3 76.9-68.1 92.9-66.8z"/>
		<path id="&lt;Path&gt;" class="s0" d="m138.1 58.3c0 0-12.5-2.5-27.9 2.2 10.5 0.1 21.4 4.2 21.4 4.2z"/>
		<path id="&lt;Path&gt;" class="s0" d="m86.1 127.6c14 8.5 31.2 12.1 48.6 8.7 37.2-7.2 61.6-43.2 54.5-80.5-7.2-37.3-43.2-61.7-80.5-54.5-26.8 5.2-46.9 25.2-53.5 49.8-11.8 5.1-29.5 14.8-45.7 32.9 70.8-43.6 130.4-43.1 138-27 5.5 0.7 18.5 3.7 20.5 19.1-21.1-3.5-97 26.7-136.6 75.6 24.7-19.1 69.2-47.6 98.3-54.4-23.2 12.7-35.9 22.4-43.6 30.3z"/>
	</g>
</svg>