<svg version="1.2" xmlns="http://www.w3.org/2000/svg" viewBox="0 0 1027 281" width="1027" height="281">
	<title>&lt;Group&gt;</title>
	<style>
		.s0 { fill: #000000 } 
	</style>
	<g id="&lt;Group&gt;">
		<g id="&lt;Group&gt;">
			<path id="&lt;Path&gt;" class="s0" d="m172.3 152.3c-45.6 25.4-118 55.8-171.7 123.3 63-109.5 142.1-125.9 171.7-123.3z"/>
			<path id="&lt;Path&gt;" class="s0" d="m254.6 108.1c0 0-23-4.6-51.5 4 19.5 0.3 39.6 7.8 39.6 7.8z"/>
			<path id="&lt;Path&gt;" class="s0" d="m158.5 236.1c26 15.7 57.6 22.3 89.8 16.1 68.9-13.3 114-79.9 100.8-148.8-13.3-68.9-79.9-114-148.8-100.7-49.4 9.5-86.6 46.5-98.8 92.1-21.8 9.3-54.6 27.3-84.6 60.6 131-80.5 241.1-79.6 255.1-49.7 10.2 1.1 34.3 6.8 38 35.3-39.2-6.6-179.3 49.3-252.5 139.7 45.7-35.4 127.8-88.1 181.6-100.6-42.9 23.4-66.3 41.3-80.6 56z"/>
		</g>
		<g id="&lt;Group&gt;">
			<path id="&lt;Compound Path&gt;" class="s0" d="m407.6 128.7l39.2 53.5 39.1-53.5h23.9v79.6h-23.5v-46.7l-29.8 39.7h-19.5l-29.7-39.7v46.7h-23.5v-79.6z"/>
			<path id="&lt;Compound Path&gt;" fill-rule="evenodd" class="s0" d="m590.7 128.7l50.6 79.6h-25.5l-10.7-16.9h-51l-10.9 16.9h-25.4l50.6-79.6zm-24.9 44.1h27.7l-13.8-21.7z"/>
			<path id="&lt;Compound Path&gt;" fill-rule="evenodd" class="s0" d="m726.6 128.7q11.9 0 20.1 7.5 8.3 7.4 8.3 18.3 0 9.2-6.6 16.4-6.6 6.9-16.5 8.7l25.5 28.7h-27.6l-23.4-28.1h-33.6v28.1h-23.5v-79.6zm-53.9 32.4q44.2 0 51.8 0 3.4 0 5.2-1.8 1.9-1.8 1.9-4.8 0-2.9-1.9-4.7-1.8-1.8-5.2-1.7h-51.8z"/>
			<path id="&lt;Compound Path&gt;" class="s0" d="m792.8 128.7v79.6h-23.4v-79.6z"/>
			<path id="&lt;Compound Path&gt;" class="s0" d="m827.6 128.7l65.5 53.1v-53.1h23.5v79.6h-22.8l-65.5-53v53h-23.5v-79.6z"/>
			<path id="&lt;Compound Path&gt;" class="s0" d="m1026.7 128.7v19.4h-74.6v10.6h64.7v19h-64.7v11.3h74.6v19.3h-98.1v-79.6z"/>
		</g>
	</g>
	<g id="&lt;Group&gt;">
		<path id="&lt;Compound Path&gt;" fill-rule="evenodd" class="s0" d="m426.9 63.4q5.5 0 9.3 3.5 3.9 3.5 3.8 8.4 0 2.5-1.1 4.8-1.2 2.3-3.2 3.9 3.2 1.6 5.1 4.5 1.9 2.8 1.9 6.2 0 5.1-3.9 8.6-3.8 3.6-9.4 3.6h-45.5v-43.5zm-31.1 17.7h27.3q1.9 0 3.3-1.2 1.3-1.3 1.3-3 0-1.8-1.3-3-1.4-1.3-3.3-1.3h-27.3zm0 16.6h30.3q1.9 0 3.3-1.3 1.4-1.2 1.3-3 0-1.7-1.4-3-1.3-1.2-3.2-1.2h-30.3z"/>
		<path id="&lt;Compound Path&gt;" class="s0" d="m448.4 106.9v-43.5h11.9v33.8h39.6v9.7z"/>
		<path id="&lt;Compound Path&gt;" fill-rule="evenodd" class="s0" d="m543.1 63.4l27.6 43.5h-12.8l-6-9.6h-29.4l-6.1 9.6h-12.7l27.6-43.5zm-14.8 24.7h17.8l-8.9-13.9z"/>
		<path id="&lt;Compound Path&gt;" class="s0" d="m621.5 63.4q5.9 0 9.9 3.7 4.1 3.7 4.1 9v2.8h-11.9v-0.8q0-2.2-1.6-3.6-1.6-1.5-4-1.4h-26q-2.3-0.1-4 1.5-1.6 1.3-1.6 3.5v14q0 2.1 1.7 3.6 1.6 1.4 3.9 1.5h26q2.4-0.1 4-1.5 1.6-1.5 1.6-3.6v-0.7h11.9v2.8q0 5.2-4.1 8.9-4 3.8-9.9 3.8h-33q-5.8 0-9.9-3.8-4.1-3.7-4.1-8.9v-18.1q0-5.3 4.1-9 4.1-3.7 9.9-3.7z"/>
		<path id="&lt;Compound Path&gt;" class="s0" d="m653.1 63.4v18.6l29-18.6h19.5l-33.2 20.4 35.6 23.1h-19.5l-31.4-21.3v21.3h-11.9v-43.5z"/>
		<path id="&lt;Compound Path&gt;" class="s0" d="m751.4 63.4v16.3h35.2v-16.3h11.8v43.5h-11.8v-17.6h-35.2v17.6h-11.8v-43.5z"/>
		<path id="&lt;Compound Path&gt;" fill-rule="evenodd" class="s0" d="m841.7 63.4l27.6 43.5h-12.8l-6-9.6h-29.4l-6.1 9.6h-12.7l27.6-43.5zm-14.8 24.7h17.7l-8.8-13.9z"/>
		<path id="&lt;Compound Path&gt;" class="s0" d="m881.2 63.4l12.8 29.1 12.9-28.8h11.8l12.8 28.8 12.9-29.1h12.8l-19.3 43.5h-11.8l-13.3-28.8-13.3 28.8h-11.8l-19.4-43.5z"/>
		<path id="&lt;Compound Path&gt;" class="s0" d="m973.2 63.4v18.6l29-18.6h19.5l-33.2 20.4 35.6 23.1h-19.5l-31.4-21.3v21.3h-11.8v-43.5z"/>
	</g>
</svg>